<?xml version="1.0" standalone="no"?>
<!DOCTYPE svg PUBLIC "-//W3C//DTD SVG 20010904//EN"
 "http://www.w3.org/TR/2001/REC-SVG-20010904/DTD/svg10.dtd">
<svg version="1.0" xmlns="http://www.w3.org/2000/svg"
 width="512.000000pt" height="512.000000pt" viewBox="0 0 512.000000 512.000000"
 preserveAspectRatio="xMidYMid meet">

<g transform="translate(0.000000,512.000000) scale(0.100000,-0.100000)"
fill="#ffffff" stroke="none">
<path d="M2105 4344 c-203 -48 -315 -105 -430 -219 -83 -83 -155 -201 -185
-302 -7 -24 -15 -43 -17 -43 -2 0 -19 7 -39 15 -52 21 -175 45 -238 45 -98 0
-205 -27 -306 -76 -77 -38 -110 -62 -176 -129 -68 -68 -89 -97 -127 -176 -57
-119 -69 -169 -72 -293 l-2 -100 -55 -12 c-263 -60 -457 -306 -458 -580 0
-129 61 -288 148 -385 l44 -49 -35 -42 c-106 -133 -167 -334 -154 -511 24
-325 237 -588 557 -689 l75 -23 1775 0 1775 0 99 27 c743 205 1069 1044 653
1682 -246 376 -680 559 -1142 481 l-41 -7 -12 86 c-36 249 -148 471 -324 644
-142 140 -290 225 -498 287 -49 15 -60 24 -101 78 -89 121 -253 231 -404 272
-58 16 -269 29 -310 19z m238 -179 c80 -17 196 -72 250 -120 l38 -33 -68 -7
c-153 -14 -289 -52 -415 -115 -348 -173 -584 -526 -605 -902 l-6 -98 -111 6
c-186 11 -340 -25 -490 -114 -173 -103 -321 -282 -376 -457 -16 -51 -25 -62
-58 -70 -15 -3 -62 -26 -106 -51 l-78 -46 -35 34 c-47 45 -91 140 -105 222
-20 123 19 248 109 346 79 86 199 140 313 140 51 0 87 20 100 55 5 14 3 55 -7
111 -29 171 20 327 141 449 164 164 387 197 601 90 50 -25 100 -45 111 -45 44
0 65 31 85 125 28 133 77 225 168 315 151 150 342 208 544 165z m447 -339
c196 -32 356 -113 499 -250 179 -173 276 -384 287 -621 6 -137 9 -150 36 -175
27 -25 62 -25 147 0 89 27 225 38 341 28 377 -34 700 -299 809 -664 94 -316
11 -664 -213 -902 -44 -46 -107 -103 -141 -127 -83 -60 -212 -120 -315 -147
l-85 -23 -1755 0 -1755 0 -67 26 c-102 40 -173 87 -243 161 -183 193 -214 475
-78 707 73 125 184 213 336 266 44 16 82 36 88 46 5 10 19 49 30 86 63 206
222 377 420 450 129 49 294 54 432 14 73 -21 89 -20 125 12 21 19 22 28 22
151 0 155 11 232 49 343 147 428 587 692 1031 619z"/>
</g>
</svg>
